<svg id="eMljwHsOPik1" xmlns="http://www.w3.org/2000/svg" xmlns:xlink="http://www.w3.org/1999/xlink" viewBox="0 0 1500 120" shape-rendering="geometricPrecision" text-rendering="geometricPrecision"><g transform="matrix(.994141 0.108088-.108088 0.994141 96.102305-76.145771)"><g transform="matrix(.999947 0.010265-.010265 0.999947-68.576772-548.538117)"><path d="M338.871769,1165.857577l-.917733-27.11035l863.715352-63.980434l3.080443,90.998079-865.878062.092705Z" transform="matrix(1.713438-.291654-.197161-1.158299-354.78723 2179.017643)" stroke-width="0"/><path d="M147.75382,1165.30232v-394.53078h1204.49237v394.53078h-1204.49237Z" transform="matrix(.233666-.039774 0.009248 0.054333 118.642649 644.784597)" fill="rgba(163,16,16,0.8)" stroke-width="0"/><path d="M147.75382,1165.30232v-394.53078h1204.49237v394.53078h-1204.49237Z" transform="matrix(.162117-.027595 0.009061 0.053231 166.786438 627.487199)" fill="rgba(255,216,166,0.71)" stroke-width="0"/><path d="M147.75382,1165.30232v-394.53078h1204.49237v394.53078h-1204.49237Z" transform="matrix(.233666-.039774 0.009248 0.054332 1029.791502 489.968073)" fill="rgba(163,16,16,0.8)" stroke-width="0"/><path d="M147.75382,1165.30232v-394.53078h1204.49237v394.53078h-1204.49237Z" transform="matrix(.162117-.027595 0.009061 0.053231 1091.476448 490.918489)" fill="rgba(255,216,166,0.71)" stroke-width="0"/></g></g></svg>
